<svg xmlns="http://www.w3.org/2000/svg" xmlns:xlink="http://www.w3.org/1999/xlink" version="1.1" x="0px" y="0px" viewBox="0 0 100 125" enable-background="new 0 0 100 100" xml:space="preserve">
  <g>
    <polygon fill="#FFFFFF" stroke="#000000" points="81.425,82.346 95.191,75.439 95.191,60.071 81.425,66.979"/>
    <polygon fill="#FFFFFF" stroke="#000000" points="81.425,65.326 95.191,58.419 95.191,43.052 81.425,49.959"/>
    <polygon fill="#FFFFFF" stroke="#000000" points="63.746,9.241 49.9,2.338 36.134,9.245 49.98,16.148"/>
    <polygon fill="#FFFFFF" stroke="#000000" points="48.485,16.899 34.638,9.996 20.872,16.903 34.719,23.806"/>
    <polygon fill="#FFFFFF" stroke="#000000" points="65.351,23.811 79.117,16.903 65.261,9.996 51.495,16.903"/>
    <polygon fill="#FFFFFF" stroke="#000000" points="36.234,24.561 50.09,31.469 63.856,24.561 50,17.654"/>
    <polygon fill="#FFFFFF" stroke="#000000" points="80.623,17.654 66.857,24.561 80.713,31.468 94.479,24.561"/>
    <polygon fill="#FFFFFF" stroke="#000000" points="19.373,17.654 5.607,24.561 19.454,31.464 33.22,24.557"/>
    <polygon fill="#FFFFFF" stroke="#000000" points="34.734,25.312 20.968,32.219 34.824,39.127 48.59,32.219"/>
    <polygon fill="#FFFFFF" stroke="#000000" points="50.902,97.662 64.668,90.755 64.668,75.388 50.902,82.295"/>
    <polygon fill="#FFFFFF" stroke="#000000" points="50.902,80.642 64.668,73.735 64.668,58.368 50.902,65.275"/>
    <polygon fill="#FFFFFF" stroke="#000000" points="50.099,32.97 36.333,39.877 50.189,46.784 63.955,39.877"/>
    <polygon fill="#FFFFFF" stroke="#000000" points="4.809,75.439 18.656,82.342 18.656,66.975 4.809,60.072"/>
    <polygon fill="#FFFFFF" stroke="#000000" points="4.809,58.419 18.656,65.322 18.656,49.955 4.809,43.052"/>
    <polygon fill="#FFFFFF" stroke="#000000" points="4.809,41.323 18.656,48.226 18.656,32.859 4.809,25.956"/>
    <polygon fill="#FFFFFF" stroke="#000000" points="20.171,83.097 34.027,90.004 34.027,74.637 20.171,67.73"/>
    <polygon fill="#FFFFFF" stroke="#000000" points="20.171,66.077 34.027,72.985 34.027,57.617 20.171,50.71"/>
    <polygon fill="#FFFFFF" stroke="#000000" points="20.171,48.981 34.027,55.888 34.027,40.521 20.171,33.614"/>
    <polygon fill="#FFFFFF" stroke="#000000" points="35.532,90.755 49.388,97.662 49.388,82.295 35.532,75.388"/>
    <polygon fill="#FFFFFF" stroke="#000000" points="35.532,73.735 49.388,80.642 49.388,65.275 35.532,58.368"/>
    <polygon fill="#FFFFFF" stroke="#000000" points="35.532,56.639 49.388,63.546 49.388,48.179 35.532,41.272"/>
    <polygon fill="#FFFFFF" stroke="#000000" points="66.163,90.004 79.929,83.097 79.929,67.729 66.163,74.637"/>
    <polygon fill="#FFFFFF" stroke="#000000" points="66.163,72.984 79.929,66.077 79.929,50.71 66.163,57.617"/>
    <polygon fill="#FFFFFF" stroke="#000000" points="65.361,25.312 51.595,32.219 65.451,39.126 79.217,32.219"/>
    <polygon fill="#FFFFFF" stroke="#000000" points="81.425,33.09 81.425,48.457 95.191,41.55 95.191,26.183"/>
    <polygon fill="#FFFFFF" stroke="#000000" points="50.902,63.546 64.668,56.639 64.668,41.272 50.902,48.179"/>
    <polygon fill="#FFFFFF" stroke="#000000" points="66.163,56.115 79.929,49.208 79.929,33.841 66.163,40.748"/>
  </g>
</svg>